<svg width="32" height="32" viewBox="0 0 64 64" fill="none" xmlns="http://www.w3.org/2000/svg">
  <rect width="64" height="64" rx="14" fill="#10b981"/>
  <g stroke="#ffffff" stroke-width="1.5" opacity="0.5">
    <line x1="16" y1="18" x2="32" y2="14"/>
    <line x1="16" y1="18" x2="32" y2="32"/>
    <line x1="16" y1="18" x2="32" y2="50"/>
    <line x1="16" y1="32" x2="32" y2="14"/>
    <line x1="16" y1="32" x2="32" y2="32"/>
    <line x1="16" y1="32" x2="32" y2="50"/>
    <line x1="16" y1="46" x2="32" y2="14"/>
    <line x1="16" y1="46" x2="32" y2="32"/>
    <line x1="16" y1="46" x2="32" y2="50"/>
    <line x1="32" y1="14" x2="48" y2="24"/>
    <line x1="32" y1="32" x2="48" y2="24"/>
    <line x1="32" y1="50" x2="48" y2="24"/>
    <line x1="32" y1="14" x2="48" y2="40"/>
    <line x1="32" y1="32" x2="48" y2="40"/>
    <line x1="32" y1="50" x2="48" y2="40"/>
  </g>
  <circle cx="16" cy="18" r="4" fill="#ffffff"/>
  <circle cx="16" cy="32" r="4" fill="#ffffff"/>
  <circle cx="16" cy="46" r="4" fill="#ffffff"/>
  <circle cx="32" cy="14" r="5" fill="#ffffff"/>
  <circle cx="32" cy="32" r="5" fill="#ffffff"/>
  <circle cx="32" cy="50" r="5" fill="#ffffff"/>
  <circle cx="48" cy="24" r="4" fill="#ffffff"/>
  <circle cx="48" cy="40" r="4" fill="#ffffff"/>
</svg>
